<svg width="8" height="8" viewBox="0 0 8 8" fill="none" xmlns="http://www.w3.org/2000/svg">
<path d="M3.6794 7.38542C3.58303 7.38603 3.48868 7.35555 3.40838 7.29788C3.32807 7.2402 3.26545 7.15794 3.2285 7.06159C3.19154 6.96523 3.18193 6.85914 3.20088 6.75685C3.21984 6.65455 3.2665 6.56069 3.33493 6.48722L5.90635 3.70857L3.33493 0.929915C3.25544 0.829431 3.21391 0.700176 3.21863 0.56798C3.22334 0.435783 3.27396 0.310382 3.36037 0.216835C3.44678 0.123288 3.56261 0.0684862 3.68471 0.06338C3.80682 0.0582738 3.92621 0.10324 4.01902 0.189292L6.93006 3.34088C7.02043 3.4393 7.07115 3.57243 7.07115 3.71119C7.07115 3.84996 7.02043 3.98309 6.93006 4.0815L4.01902 7.23309C3.92865 7.33013 3.80668 7.38484 3.6794 7.38542Z" fill="black"/>
<path d="M0.769245 7.38613C0.672878 7.38674 0.578527 7.35626 0.498221 7.29859C0.417915 7.24091 0.355293 7.15865 0.318339 7.0623C0.281385 6.96594 0.271773 6.85985 0.290728 6.75756C0.309684 6.65526 0.356348 6.5614 0.424772 6.48793L2.99619 3.70928L0.424772 0.930626C0.333412 0.831716 0.282086 0.697567 0.282086 0.557688C0.282086 0.417809 0.333412 0.283659 0.424772 0.18475C0.516132 0.0858402 0.640043 0.0302734 0.769245 0.0302734C0.898448 0.0302734 1.02236 0.0858402 1.11372 0.18475L4.02476 3.33634C4.11512 3.43475 4.16584 3.56788 4.16584 3.70665C4.16584 3.84542 4.11512 3.97855 4.02476 4.07696L1.11372 7.22855C1.06878 7.27818 1.0152 7.31767 0.956069 7.34472C0.896938 7.37177 0.833437 7.38584 0.769245 7.38613Z" fill="black"/>
</svg>
