<svg width="8" height="8" viewBox="0 0 8 8" fill="none" xmlns="http://www.w3.org/2000/svg">
<path d="M3.70675 7.98161C3.61038 7.98222 3.51603 7.95174 3.43572 7.89407C3.35542 7.83639 3.29279 7.75413 3.25584 7.65778C3.21888 7.56142 3.20927 7.45533 3.22823 7.35304C3.24718 7.25074 3.29385 7.15688 3.36227 7.08341L5.93369 4.30476L3.36227 1.52611C3.28279 1.42562 3.24125 1.29637 3.24597 1.16417C3.25069 1.03197 3.30131 0.906573 3.38771 0.813026C3.47412 0.71948 3.58995 0.664678 3.71206 0.659571C3.83416 0.654465 3.95355 0.699431 4.04637 0.785483L6.95741 3.93707C7.04777 4.03549 7.09849 4.16862 7.09849 4.30738C7.09849 4.44615 7.04777 4.57928 6.95741 4.6777L4.04637 7.82929C3.956 7.92633 3.83403 7.98103 3.70675 7.98161Z" fill="black"/>
<path d="M0.796589 7.98232C0.700221 7.98293 0.60587 7.95245 0.525565 7.89478C0.445259 7.8371 0.382637 7.75484 0.345683 7.65849C0.308729 7.56213 0.299117 7.45604 0.318072 7.35375C0.337028 7.25146 0.383692 7.15759 0.452116 7.08412L3.02354 4.30547L0.452116 1.52682C0.360756 1.42791 0.30943 1.29376 0.30943 1.15388C0.30943 1.014 0.360756 0.87985 0.452116 0.780941C0.543476 0.682032 0.667386 0.626465 0.796589 0.626465C0.925791 0.626465 1.0497 0.682032 1.14106 0.780941L4.0521 3.93253C4.14247 4.03095 4.19319 4.16408 4.19319 4.30284C4.19319 4.44161 4.14247 4.57474 4.0521 4.67315L1.14106 7.82474C1.09613 7.87438 1.04254 7.91386 0.983412 7.94091C0.924282 7.96796 0.860781 7.98204 0.796589 7.98232Z" fill="black"/>
</svg>
