<svg width="8" height="8" viewBox="0 0 8 8" fill="none" xmlns="http://www.w3.org/2000/svg">
<path d="M3.83565 7.98112C3.73928 7.98173 3.64493 7.95125 3.56463 7.89358C3.48432 7.83591 3.4217 7.75365 3.38475 7.65729C3.34779 7.56093 3.33818 7.45484 3.35713 7.35255C3.37609 7.25026 3.42275 7.15639 3.49118 7.08292L6.0626 4.30427L3.49118 1.52562C3.41169 1.42513 3.37016 1.29588 3.37488 1.16368C3.37959 1.03149 3.43021 0.906085 3.51662 0.812538C3.60303 0.718991 3.71886 0.664189 3.84096 0.659083C3.96307 0.653977 4.08246 0.698943 4.17527 0.784995L7.08631 3.93658C7.17668 4.035 7.2274 4.16813 7.2274 4.3069C7.2274 4.44566 7.17668 4.57879 7.08631 4.67721L4.17527 7.8288C4.0849 7.92584 3.96293 7.98054 3.83565 7.98112Z" fill="black"/>
<path d="M0.925495 7.98184C0.829128 7.98244 0.734777 7.95197 0.654471 7.89429C0.574165 7.83662 0.511543 7.75436 0.474589 7.658C0.437635 7.56164 0.428023 7.45555 0.446978 7.35326C0.465934 7.25097 0.512598 7.1571 0.581022 7.08363L3.15244 4.30498L0.581022 1.52633C0.489662 1.42742 0.438336 1.29327 0.438336 1.15339C0.438336 1.01351 0.489662 0.879362 0.581022 0.780453C0.672382 0.681543 0.796293 0.625977 0.925495 0.625977C1.0547 0.625977 1.17861 0.681543 1.26997 0.780453L4.18101 3.93204C4.27137 4.03046 4.32209 4.16359 4.32209 4.30235C4.32209 4.44112 4.27137 4.57425 4.18101 4.67267L1.26997 7.82426C1.22503 7.87389 1.17145 7.91337 1.11232 7.94042C1.05319 7.96747 0.989687 7.98155 0.925495 7.98184Z" fill="black"/>
</svg>
