<svg width="8" height="8" viewBox="0 0 8 8" fill="none" xmlns="http://www.w3.org/2000/svg">
<path d="M3.83565 7.38493C3.73928 7.38554 3.64493 7.35506 3.56463 7.29739C3.48432 7.23971 3.4217 7.15745 3.38475 7.0611C3.34779 6.96474 3.33818 6.85865 3.35713 6.75636C3.37609 6.65407 3.42275 6.5602 3.49118 6.48673L6.0626 3.70808L3.49118 0.929427C3.41169 0.828943 3.37016 0.699688 3.37488 0.567491C3.37959 0.435295 3.43021 0.309893 3.51662 0.216347C3.60303 0.1228 3.71886 0.0679979 3.84096 0.0628917C3.96307 0.0577856 4.08246 0.102751 4.17527 0.188804L7.08631 3.34039C7.17668 3.43881 7.2274 3.57194 7.2274 3.7107C7.2274 3.84947 7.17668 3.9826 7.08631 4.08102L4.17527 7.23261C4.0849 7.32965 3.96293 7.38435 3.83565 7.38493Z" fill="black"/>
<path d="M0.925495 7.38564C0.829128 7.38625 0.734777 7.35577 0.654471 7.2981C0.574165 7.24042 0.511543 7.15816 0.474589 7.06181C0.437635 6.96545 0.428023 6.85936 0.446978 6.75707C0.465934 6.65478 0.512598 6.56091 0.581022 6.48744L3.15244 3.70879L0.581022 0.930138C0.489662 0.831228 0.438336 0.697078 0.438336 0.557199C0.438336 0.41732 0.489662 0.283171 0.581022 0.184261C0.672382 0.0853519 0.796293 0.0297852 0.925495 0.0297852C1.0547 0.0297852 1.17861 0.0853519 1.26997 0.184261L4.18101 3.33585C4.27137 3.43427 4.32209 3.5674 4.32209 3.70616C4.32209 3.84493 4.27137 3.97806 4.18101 4.07647L1.26997 7.22806C1.22503 7.2777 1.17145 7.31718 1.11232 7.34423C1.05319 7.37128 0.989687 7.38536 0.925495 7.38564Z" fill="black"/>
</svg>
