<svg width="8" height="8" viewBox="0 0 8 8" fill="none" xmlns="http://www.w3.org/2000/svg">
<path d="M3.94893 7.98112C3.85257 7.98173 3.75821 7.95125 3.67791 7.89358C3.5976 7.83591 3.53498 7.75365 3.49803 7.65729C3.46107 7.56093 3.45146 7.45484 3.47042 7.35255C3.48937 7.25026 3.53604 7.15639 3.60446 7.08292L6.17588 4.30427L3.60446 1.52562C3.52498 1.42513 3.48344 1.29588 3.48816 1.16368C3.49287 1.03149 3.54349 0.906085 3.6299 0.812538C3.71631 0.718991 3.83214 0.664189 3.95424 0.659083C4.07635 0.653977 4.19574 0.698943 4.28855 0.784995L7.19959 3.93658C7.28996 4.035 7.34068 4.16813 7.34068 4.3069C7.34068 4.44566 7.28996 4.57879 7.19959 4.67721L4.28855 7.8288C4.19819 7.92584 4.07621 7.98054 3.94893 7.98112Z" fill="black"/>
<path d="M1.03878 7.98184C0.942409 7.98244 0.848058 7.95197 0.767752 7.89429C0.687446 7.83662 0.624824 7.75436 0.58787 7.658C0.550916 7.56164 0.541304 7.45555 0.56026 7.35326C0.579215 7.25097 0.62588 7.1571 0.694303 7.08363L3.26572 4.30498L0.694303 1.52633C0.602943 1.42742 0.551618 1.29327 0.551618 1.15339C0.551618 1.01351 0.602943 0.879362 0.694303 0.780453C0.785663 0.681543 0.909574 0.625977 1.03878 0.625977C1.16798 0.625977 1.29189 0.681543 1.38325 0.780453L4.29429 3.93204C4.38465 4.03046 4.43537 4.16359 4.43537 4.30235C4.43537 4.44112 4.38465 4.57425 4.29429 4.67267L1.38325 7.82426C1.33832 7.87389 1.28473 7.91337 1.2256 7.94042C1.16647 7.96747 1.10297 7.98155 1.03878 7.98184Z" fill="black"/>
</svg>
