<svg width="8" height="8" viewBox="0 0 8 8" fill="none" xmlns="http://www.w3.org/2000/svg">
<path d="M3.94893 7.38493C3.85257 7.38554 3.75821 7.35506 3.67791 7.29739C3.5976 7.23971 3.53498 7.15745 3.49803 7.0611C3.46107 6.96474 3.45146 6.85865 3.47042 6.75636C3.48937 6.65407 3.53604 6.5602 3.60446 6.48673L6.17588 3.70808L3.60446 0.929427C3.52498 0.828943 3.48344 0.699688 3.48816 0.567491C3.49287 0.435295 3.54349 0.309893 3.6299 0.216347C3.71631 0.1228 3.83214 0.0679979 3.95424 0.0628917C4.07635 0.0577856 4.19574 0.102751 4.28855 0.188804L7.19959 3.34039C7.28996 3.43881 7.34068 3.57194 7.34068 3.7107C7.34068 3.84947 7.28996 3.9826 7.19959 4.08102L4.28855 7.23261C4.19819 7.32965 4.07621 7.38435 3.94893 7.38493Z" fill="black"/>
<path d="M1.03878 7.38564C0.942409 7.38625 0.848058 7.35577 0.767752 7.2981C0.687446 7.24042 0.624824 7.15816 0.58787 7.06181C0.550916 6.96545 0.541304 6.85936 0.56026 6.75707C0.579215 6.65478 0.62588 6.56091 0.694303 6.48744L3.26572 3.70879L0.694303 0.930138C0.602943 0.831228 0.551618 0.697078 0.551618 0.557199C0.551618 0.41732 0.602943 0.283171 0.694303 0.184261C0.785663 0.0853519 0.909574 0.0297852 1.03878 0.0297852C1.16798 0.0297852 1.29189 0.0853519 1.38325 0.184261L4.29429 3.33585C4.38465 3.43427 4.43537 3.5674 4.43537 3.70616C4.43537 3.84493 4.38465 3.97806 4.29429 4.07647L1.38325 7.22806C1.33832 7.2777 1.28473 7.31718 1.2256 7.34423C1.16647 7.37128 1.10297 7.38536 1.03878 7.38564Z" fill="black"/>
</svg>
