<svg width="10" height="10" viewBox="0 0 10 10" fill="none" xmlns="http://www.w3.org/2000/svg">
<g clip-path="url(#clip0_803_1993)">
<path d="M8.05781 1.36084H7.29085V2.1278C7.29085 2.2812 7.16302 2.38346 7.03519 2.38346C6.90737 2.38346 6.77954 2.2812 6.77954 2.1278V1.36084H2.68907V2.1278C2.68907 2.2812 2.56124 2.38346 2.43341 2.38346C2.30559 2.38346 2.17776 2.2812 2.17776 2.1278V1.36084H1.4108C1.02731 1.36084 0.746094 1.69319 0.746094 2.1278V3.04816H8.92704V2.1278C8.92704 1.69319 8.46686 1.36084 8.05781 1.36084ZM0.746094 3.58503V8.26351C0.746094 8.72369 1.02731 9.03047 1.43636 9.03047H8.08338C8.49242 9.03047 8.9526 8.69812 8.9526 8.26351V3.58503H0.746094ZM3.02142 7.88003H2.40785C2.30559 7.88003 2.20332 7.80333 2.20332 7.67551V7.03637C2.20332 6.93411 2.28002 6.83185 2.40785 6.83185H3.04698C3.14925 6.83185 3.25151 6.90854 3.25151 7.03637V7.67551C3.22594 7.80333 3.14925 7.88003 3.02142 7.88003ZM3.02142 5.57914H2.40785C2.30559 5.57914 2.20332 5.50244 2.20332 5.37462V4.73548C2.20332 4.63322 2.28002 4.53096 2.40785 4.53096H3.04698C3.14925 4.53096 3.25151 4.60765 3.25151 4.73548V5.37462C3.22594 5.50244 3.14925 5.57914 3.02142 5.57914ZM5.06665 7.88003H4.42752C4.32526 7.88003 4.22299 7.80333 4.22299 7.67551V7.03637C4.22299 6.93411 4.29969 6.83185 4.42752 6.83185H5.06665C5.16892 6.83185 5.27118 6.90854 5.27118 7.03637V7.67551C5.27118 7.80333 5.19448 7.88003 5.06665 7.88003ZM5.06665 5.57914H4.42752C4.32526 5.57914 4.22299 5.50244 4.22299 5.37462V4.73548C4.22299 4.63322 4.29969 4.53096 4.42752 4.53096H5.06665C5.16892 4.53096 5.27118 4.60765 5.27118 4.73548V5.37462C5.27118 5.50244 5.19448 5.57914 5.06665 5.57914ZM7.11189 7.88003H6.47275C6.37049 7.88003 6.26823 7.80333 6.26823 7.67551V7.03637C6.26823 6.93411 6.34493 6.83185 6.47275 6.83185H7.11189C7.21415 6.83185 7.31641 6.90854 7.31641 7.03637V7.67551C7.31641 7.80333 7.23972 7.88003 7.11189 7.88003ZM7.11189 5.57914H6.47275C6.37049 5.57914 6.26823 5.50244 6.26823 5.37462V4.73548C6.26823 4.63322 6.34493 4.53096 6.47275 4.53096H7.11189C7.21415 4.53096 7.31641 4.60765 7.31641 4.73548V5.37462C7.31641 5.50244 7.23972 5.57914 7.11189 5.57914Z" fill="black"/>
</g>
<defs>
<clipPath id="clip0_803_1993">
<rect width="8.69225" height="8.69225" fill="white" transform="translate(0.492188 0.849609)"/>
</clipPath>
</defs>
</svg>
