<svg width="9" height="10" viewBox="0 0 9 10" fill="none" xmlns="http://www.w3.org/2000/svg">
<g clip-path="url(#clip0_803_2011)">
<path d="M7.78047 1.36084H7.0135V2.1278C7.0135 2.2812 6.88568 2.38346 6.75785 2.38346C6.63002 2.38346 6.50219 2.2812 6.50219 2.1278V1.36084H2.41172V2.1278C2.41172 2.2812 2.2839 2.38346 2.15607 2.38346C2.02824 2.38346 1.90041 2.2812 1.90041 2.1278V1.36084H1.13345C0.74997 1.36084 0.46875 1.69319 0.46875 2.1278V3.04816H8.64969V2.1278C8.64969 1.69319 8.18951 1.36084 7.78047 1.36084ZM0.46875 3.58503V8.26351C0.46875 8.72369 0.74997 9.03047 1.15902 9.03047H7.80603C8.21508 9.03047 8.67526 8.69812 8.67526 8.26351V3.58503H0.46875ZM2.74407 7.88003H2.1305C2.02824 7.88003 1.92598 7.80333 1.92598 7.67551V7.03637C1.92598 6.93411 2.00268 6.83185 2.1305 6.83185H2.76964C2.8719 6.83185 2.97416 6.90854 2.97416 7.03637V7.67551C2.9486 7.80333 2.8719 7.88003 2.74407 7.88003ZM2.74407 5.57914H2.1305C2.02824 5.57914 1.92598 5.50244 1.92598 5.37462V4.73548C1.92598 4.63322 2.00268 4.53096 2.1305 4.53096H2.76964C2.8719 4.53096 2.97416 4.60765 2.97416 4.73548V5.37462C2.9486 5.50244 2.8719 5.57914 2.74407 5.57914ZM4.78931 7.88003H4.15017C4.04791 7.88003 3.94565 7.80333 3.94565 7.67551V7.03637C3.94565 6.93411 4.02235 6.83185 4.15017 6.83185H4.78931C4.89157 6.83185 4.99383 6.90854 4.99383 7.03637V7.67551C4.99383 7.80333 4.91714 7.88003 4.78931 7.88003ZM4.78931 5.57914H4.15017C4.04791 5.57914 3.94565 5.50244 3.94565 5.37462V4.73548C3.94565 4.63322 4.02235 4.53096 4.15017 4.53096H4.78931C4.89157 4.53096 4.99383 4.60765 4.99383 4.73548V5.37462C4.99383 5.50244 4.91714 5.57914 4.78931 5.57914ZM6.83455 7.88003H6.19541C6.09315 7.88003 5.99089 7.80333 5.99089 7.67551V7.03637C5.99089 6.93411 6.06758 6.83185 6.19541 6.83185H6.83455C6.93681 6.83185 7.03907 6.90854 7.03907 7.03637V7.67551C7.03907 7.80333 6.96237 7.88003 6.83455 7.88003ZM6.83455 5.57914H6.19541C6.09315 5.57914 5.99089 5.50244 5.99089 5.37462V4.73548C5.99089 4.63322 6.06758 4.53096 6.19541 4.53096H6.83455C6.93681 4.53096 7.03907 4.60765 7.03907 4.73548V5.37462C7.03907 5.50244 6.96237 5.57914 6.83455 5.57914Z" fill="black"/>
</g>
<defs>
<clipPath id="clip0_803_2011">
<rect width="8.69225" height="8.69225" fill="white" transform="translate(0.214844 0.849609)"/>
</clipPath>
</defs>
</svg>
