<svg width="8" height="8" viewBox="0 0 8 8" fill="none" xmlns="http://www.w3.org/2000/svg">
<path d="M3.70675 7.98161C3.61038 7.98222 3.51603 7.95174 3.43572 7.89407C3.35542 7.83639 3.29279 7.75413 3.25584 7.65778C3.21888 7.56142 3.20927 7.45533 3.22823 7.35304C3.24718 7.25074 3.29385 7.15688 3.36227 7.08341L5.93369 4.30476L3.36227 1.52611C3.28279 1.42562 3.24125 1.29637 3.24597 1.16417C3.25069 1.03197 3.30131 0.906573 3.38771 0.813026C3.47412 0.71948 3.58995 0.664678 3.71206 0.659571C3.83416 0.654465 3.95355 0.699431 4.04637 0.785483L6.95741 3.93707C7.04777 4.03549 7.09849 4.16862 7.09849 4.30738C7.09849 4.44615 7.04777 4.57928 6.95741 4.6777L4.04637 7.82929C3.956 7.92633 3.83403 7.98103 3.70675 7.98161Z" fill="black"/>
<path d="M0.792683 7.98232C0.696315 7.98293 0.601964 7.95245 0.521658 7.89478C0.441353 7.8371 0.378731 7.75484 0.341777 7.65849C0.304822 7.56213 0.29521 7.45604 0.314166 7.35375C0.333122 7.25146 0.379786 7.15759 0.448209 7.08412L3.01963 4.30547L0.448209 1.52682C0.356849 1.42791 0.305524 1.29376 0.305524 1.15388C0.305524 1.014 0.356849 0.87985 0.448209 0.780941C0.539569 0.682032 0.66348 0.626465 0.792683 0.626465C0.921885 0.626465 1.0458 0.682032 1.13716 0.780941L4.0482 3.93253C4.13856 4.03095 4.18928 4.16408 4.18928 4.30284C4.18928 4.44161 4.13856 4.57474 4.0482 4.67315L1.13716 7.82474C1.09222 7.87438 1.03864 7.91386 0.979506 7.94091C0.920375 7.96796 0.856875 7.98204 0.792683 7.98232Z" fill="black"/>
</svg>
