<svg width="52" height="51" viewBox="0 0 52 51" fill="none" xmlns="http://www.w3.org/2000/svg">
<g clip-path="url(#clip0_803_2782)">
<circle cx="26.1011" cy="25.2036" r="19.898" fill="black"/>
<path d="M30.9297 25.204C30.9297 27.8684 28.7699 30.0283 26.1055 30.0283C23.4411 30.0283 21.2812 27.8684 21.2812 25.204C21.2812 22.5396 23.4411 20.3798 26.1055 20.3798C28.7699 20.3798 30.9297 22.5396 30.9297 25.204Z" fill="white"/>
<path d="M37.3817 16.6701C37.1498 16.0417 36.7798 15.4729 36.2991 15.006C35.8322 14.5253 35.2638 14.1553 34.635 13.9234C34.125 13.7253 33.359 13.4896 31.9479 13.4254C30.4215 13.3558 29.9639 13.3408 26.0996 13.3408C22.2349 13.3408 21.7772 13.3554 20.2512 13.425C18.8402 13.4896 18.0737 13.7253 17.5641 13.9234C16.9353 14.1553 16.3665 14.5253 15.9 15.006C15.4193 15.4729 15.0493 16.0413 14.817 16.6701C14.619 17.1801 14.3832 17.9465 14.319 19.3576C14.2494 20.8836 14.2344 21.3413 14.2344 25.2059C14.2344 29.0702 14.2494 29.5279 14.319 31.0543C14.3832 32.4653 14.619 33.2314 14.817 33.7414C15.0493 34.3702 15.4189 34.9386 15.8996 35.4055C16.3665 35.8862 16.9349 36.2562 17.5637 36.4881C18.0737 36.6865 18.8402 36.9223 20.2512 36.9865C21.7772 37.0561 22.2345 37.0707 26.0992 37.0707C29.9642 37.0707 30.4219 37.0561 31.9475 36.9865C33.3586 36.9223 34.125 36.6865 34.635 36.4881C35.8972 36.0012 36.8948 35.0036 37.3817 33.7414C37.5798 33.2314 37.8155 32.4653 37.8801 31.0543C37.9497 29.5279 37.9643 29.0702 37.9643 25.2059C37.9643 21.3413 37.9497 20.8836 37.8801 19.3576C37.8159 17.9465 37.5801 17.1801 37.3817 16.6701ZM26.0996 32.6373C21.9949 32.6373 18.6675 29.3102 18.6675 25.2056C18.6675 21.1009 21.9949 17.7739 26.0996 17.7739C30.2038 17.7739 33.5312 21.1009 33.5312 25.2056C33.5312 29.3102 30.2038 32.6373 26.0996 32.6373ZM33.8251 19.2168C32.8659 19.2168 32.0883 18.4392 32.0883 17.48C32.0883 16.5209 32.8659 15.7433 33.8251 15.7433C34.7842 15.7433 35.5619 16.5209 35.5619 17.48C35.5615 18.4392 34.7842 19.2168 33.8251 19.2168Z" fill="white"/>
<path d="M26.1025 -0.000152588C12.1848 -0.000152588 0.898438 11.2862 0.898438 25.2039C0.898438 39.1216 12.1848 50.408 26.1025 50.408C40.0202 50.408 51.3066 39.1216 51.3066 25.2039C51.3066 11.2862 40.0202 -0.000152588 26.1025 -0.000152588ZM40.4879 31.1707C40.4179 32.7114 40.1729 33.7632 39.8152 34.6839C39.0634 36.628 37.5266 38.1648 35.5825 38.9166C34.6622 39.2743 33.61 39.5189 32.0697 39.5893C30.5264 39.6597 30.0333 39.6766 26.1029 39.6766C22.1721 39.6766 21.6794 39.6597 20.1357 39.5893C18.5954 39.5189 17.5432 39.2743 16.6229 38.9166C15.6568 38.5532 14.7823 37.9836 14.0593 37.2472C13.3232 36.5245 12.7536 35.6496 12.3902 34.6839C12.0325 33.7636 11.7875 32.7114 11.7175 31.1711C11.6464 29.6274 11.6299 29.1344 11.6299 25.2039C11.6299 21.2735 11.6464 20.7804 11.7172 19.2371C11.7872 17.6965 12.0318 16.6446 12.3894 15.7239C12.7528 14.7582 13.3228 13.8833 14.0593 13.1607C14.7819 12.4242 15.6568 11.8546 16.6225 11.4912C17.5432 11.1335 18.5951 10.889 20.1357 10.8186C21.679 10.7482 22.1721 10.7313 26.1025 10.7313C30.033 10.7313 30.526 10.7482 32.0693 10.819C33.61 10.889 34.6618 11.1335 35.5825 11.4908C36.5482 11.8543 37.4231 12.4242 38.1461 13.1607C38.8822 13.8837 39.4522 14.7582 39.8152 15.7239C40.1733 16.6446 40.4179 17.6965 40.4883 19.2371C40.5586 20.7804 40.5752 21.2735 40.5752 25.2039C40.5752 29.1344 40.5586 29.6274 40.4879 31.1707Z" fill="white"/>
</g>
<defs>
<clipPath id="clip0_803_2782">
<rect width="50.4082" height="50.4082" fill="white" transform="translate(0.898438 -6.10352e-05)"/>
</clipPath>
</defs>
</svg>
