<svg width="28" height="27" viewBox="0 0 28 27" fill="none" xmlns="http://www.w3.org/2000/svg">
<g clip-path="url(#clip0_803_343)">
<circle cx="13.9743" cy="13.5002" r="10.6579" fill="black"/>
<path d="M16.5586 13.5C16.5586 14.9271 15.4017 16.084 13.9746 16.084C12.5475 16.084 11.3906 14.9271 11.3906 13.5C11.3906 12.0729 12.5475 10.916 13.9746 10.916C15.4017 10.916 16.5586 12.0729 16.5586 13.5Z" fill="white"/>
<path d="M20.0155 8.92831C19.8913 8.59171 19.6932 8.28705 19.4357 8.03697C19.1856 7.77948 18.8811 7.58131 18.5443 7.4571C18.2712 7.35101 17.8608 7.22474 17.1051 7.19034C16.2875 7.15305 16.0423 7.14502 13.9725 7.14502C11.9025 7.14502 11.6573 7.15285 10.84 7.19013C10.0842 7.22474 9.67362 7.35101 9.40068 7.4571C9.06388 7.58131 8.75922 7.77948 8.50935 8.03697C8.25185 8.28705 8.05369 8.59151 7.92927 8.92831C7.82318 9.20145 7.69691 9.612 7.66251 10.3678C7.62522 11.1852 7.61719 11.4303 7.61719 13.5003C7.61719 15.5702 7.62522 15.8153 7.66251 16.6329C7.69691 17.3887 7.82318 17.799 7.92927 18.0722C8.05369 18.409 8.25165 18.7134 8.50914 18.9635C8.75922 19.221 9.06368 19.4192 9.40047 19.5434C9.67362 19.6497 10.0842 19.7759 10.84 19.8103C11.6573 19.8476 11.9023 19.8554 13.9723 19.8554C16.0425 19.8554 16.2877 19.8476 17.1048 19.8103C17.8606 19.7759 18.2712 19.6497 18.5443 19.5434C19.2204 19.2826 19.7547 18.7482 20.0155 18.0722C20.1216 17.799 20.2479 17.3887 20.2825 16.6329C20.3198 15.8153 20.3276 15.5702 20.3276 13.5003C20.3276 11.4303 20.3198 11.1852 20.2825 10.3678C20.2481 9.612 20.1218 9.20145 20.0155 8.92831ZM13.9725 17.4808C11.7739 17.4808 9.99168 15.6987 9.99168 13.5001C9.99168 11.3016 11.7739 9.51951 13.9725 9.51951C16.1709 9.51951 17.9531 11.3016 17.9531 13.5001C17.9531 15.6987 16.1709 17.4808 13.9725 17.4808ZM18.1105 10.2924C17.5968 10.2924 17.1802 9.87588 17.1802 9.36213C17.1802 8.84838 17.5968 8.43186 18.1105 8.43186C18.6243 8.43186 19.0408 8.84838 19.0408 9.36213C19.0406 9.87588 18.6243 10.2924 18.1105 10.2924Z" fill="white"/>
<path d="M13.9746 0C6.51991 0 0.474609 6.0453 0.474609 13.5C0.474609 20.9547 6.51991 27 13.9746 27C21.4293 27 27.4746 20.9547 27.4746 13.5C27.4746 6.0453 21.4293 0 13.9746 0ZM21.6798 16.696C21.6423 17.5212 21.5111 18.0846 21.3195 18.5777C20.9168 19.619 20.0937 20.4422 19.0524 20.8449C18.5594 21.0365 17.9958 21.1675 17.1708 21.2052C16.3442 21.2429 16.0801 21.252 13.9748 21.252C11.8694 21.252 11.6055 21.2429 10.7786 21.2052C9.95361 21.1675 9.39001 21.0365 8.89707 20.8449C8.37962 20.6502 7.91119 20.3452 7.52392 19.9507C7.12965 19.5636 6.82457 19.095 6.62991 18.5777C6.43833 18.0848 6.30711 17.5212 6.26962 16.6962C6.23151 15.8693 6.22266 15.6053 6.22266 13.5C6.22266 11.3947 6.23151 11.1307 6.26942 10.304C6.30691 9.4788 6.43792 8.91541 6.62949 8.42226C6.82416 7.90501 7.12944 7.43637 7.52392 7.04931C7.91098 6.65483 8.37962 6.34975 8.89687 6.15509C9.39001 5.96352 9.95341 5.8325 10.7786 5.79481C11.6053 5.75711 11.8694 5.74805 13.9746 5.74805C16.0799 5.74805 16.3439 5.75711 17.1706 5.79501C17.9958 5.8325 18.5592 5.96352 19.0524 6.15488C19.5696 6.34955 20.0382 6.65483 20.4255 7.04931C20.8198 7.43658 21.1251 7.90501 21.3195 8.42226C21.5113 8.91541 21.6423 9.4788 21.68 10.304C21.7177 11.1307 21.7266 11.3947 21.7266 13.5C21.7266 15.6053 21.7177 15.8693 21.6798 16.696Z" fill="white"/>
</g>
<defs>
<clipPath id="clip0_803_343">
<rect width="27" height="27" fill="white" transform="translate(0.474609)"/>
</clipPath>
</defs>
</svg>
