<svg width="117" height="40" viewBox="0 0 117 40" fill="none" xmlns="http://www.w3.org/2000/svg">
<circle cx="97" cy="20" r="18" fill="black"/>
<circle cx="97" cy="20" r="18" fill="black"/>
<circle cx="25" cy="20" r="18" fill="black"/>
<circle cx="25" cy="20" r="18" fill="black"/>
<path d="M97 0C85.973 0 77 8.973 77 20C77 31.027 85.973 40 97 40C108.027 40 117 31.027 117 20C117 8.973 108.027 0 97 0ZM105.796 21.477L100.464 27.756C100.014 28.287 99.37 28.561 98.725 28.561C98.204 28.561 97.678 28.382 97.248 28.018C96.288 27.205 96.17 25.764 96.985 24.803L99.127 22.282H89.941C88.681 22.282 87.66 21.261 87.66 20.001C87.66 18.741 88.681 17.72 89.941 17.72H99.127L96.985 15.199C96.17 14.238 96.288 12.799 97.248 11.982C98.208 11.167 99.648 11.285 100.464 12.246L105.796 18.525C106.52 19.375 106.52 20.625 105.796 21.477Z" fill="#F7A600"/>
<path d="M25 40C36.027 40 45 31.027 45 20C45 8.973 36.027 0 25 0C13.973 0 5 8.973 5 20C5 31.027 13.973 40 25 40ZM16.204 18.523L21.536 12.244C21.986 11.713 22.63 11.439 23.275 11.439C23.796 11.439 24.322 11.618 24.752 11.982C25.712 12.795 25.83 14.236 25.015 15.197L22.873 17.718L32.059 17.718C33.319 17.718 34.34 18.739 34.34 19.999C34.34 21.259 33.319 22.28 32.059 22.28L22.873 22.28L25.015 24.801C25.83 25.762 25.712 27.201 24.752 28.018C23.792 28.833 22.352 28.715 21.536 27.754L16.204 21.475C15.48 20.625 15.48 19.375 16.204 18.523Z" fill="#F7A600"/>
</svg>
