<svg width="19" height="19" viewBox="0 0 19 19" fill="none" xmlns="http://www.w3.org/2000/svg">
<g clip-path="url(#clip0_803_2726)">
<circle cx="9.5" cy="9.5" r="7.5" fill="black"/>
<path d="M11.3164 9.5C11.3164 10.5043 10.5023 11.3184 9.49805 11.3184C8.49377 11.3184 7.67969 10.5043 7.67969 9.5C7.67969 8.49573 8.49377 7.68164 9.49805 7.68164C10.5023 7.68164 11.3164 8.49573 11.3164 9.5Z" fill="white"/>
<path d="M13.756 6.28274C13.6686 6.04588 13.5292 5.83148 13.348 5.6555C13.172 5.4743 12.9577 5.33485 12.7207 5.24744C12.5285 5.17279 12.2397 5.08393 11.7079 5.05972C11.1326 5.03349 10.9601 5.02783 9.50351 5.02783C8.04682 5.02783 7.87432 5.03334 7.29913 5.05958C6.76727 5.08393 6.47837 5.17279 6.2863 5.24744C6.04929 5.33485 5.8349 5.4743 5.65907 5.6555C5.47787 5.83148 5.33842 6.04573 5.25086 6.28274C5.17621 6.47495 5.08735 6.76386 5.06314 7.29571C5.0369 7.8709 5.03125 8.0434 5.03125 9.50009C5.03125 10.9566 5.0369 11.1291 5.06314 11.7045C5.08735 12.2363 5.17621 12.5251 5.25086 12.7173C5.33842 12.9543 5.47772 13.1686 5.65892 13.3445C5.8349 13.5257 6.04915 13.6652 6.28616 13.7526C6.47837 13.8274 6.76727 13.9163 7.29913 13.9405C7.87432 13.9667 8.04668 13.9722 9.50337 13.9722C10.9602 13.9722 11.1327 13.9667 11.7077 13.9405C12.2396 13.9163 12.5285 13.8274 12.7207 13.7526C13.1965 13.5691 13.5725 13.1931 13.756 12.7173C13.8307 12.5251 13.9195 12.2363 13.9439 11.7045C13.9701 11.1291 13.9756 10.9566 13.9756 9.50009C13.9756 8.0434 13.9701 7.8709 13.9439 7.29571C13.9197 6.76386 13.8308 6.47495 13.756 6.28274ZM9.50351 12.3011C7.95637 12.3011 6.70219 11.0471 6.70219 9.49995C6.70219 7.9528 7.95637 6.69877 9.50351 6.69877C11.0505 6.69877 12.3047 7.9528 12.3047 9.49995C12.3047 11.0471 11.0505 12.3011 9.50351 12.3011ZM12.4154 7.24265C12.0539 7.24265 11.7608 6.94955 11.7608 6.58802C11.7608 6.22649 12.0539 5.93339 12.4154 5.93339C12.777 5.93339 13.0701 6.22649 13.0701 6.58802C13.0699 6.94955 12.777 7.24265 12.4154 7.24265Z" fill="white"/>
<path d="M9.5 0C4.2541 0 0 4.2541 0 9.5C0 14.7459 4.2541 19 9.5 19C14.7459 19 19 14.7459 19 9.5C19 4.2541 14.7459 0 9.5 0ZM14.9222 11.749C14.8958 12.3297 14.8035 12.7262 14.6686 13.0732C14.3852 13.806 13.806 14.3852 13.0732 14.6686C12.7263 14.8035 12.3297 14.8956 11.7492 14.9222C11.1675 14.9487 10.9816 14.9551 9.50014 14.9551C8.01852 14.9551 7.83283 14.9487 7.25097 14.9222C6.67041 14.8956 6.2738 14.8035 5.92692 14.6686C5.56278 14.5317 5.23315 14.317 4.96062 14.0394C4.68317 13.767 4.46849 13.4372 4.3315 13.0732C4.19669 12.7263 4.10435 12.3297 4.07797 11.7492C4.05116 11.1673 4.04492 10.9815 4.04492 9.5C4.04492 8.01852 4.05116 7.83269 4.07783 7.25097C4.10421 6.67027 4.1964 6.2738 4.33121 5.92677C4.4682 5.56278 4.68303 5.233 4.96062 4.96062C5.233 4.68303 5.56278 4.46835 5.92677 4.33136C6.2738 4.19655 6.67027 4.10435 7.25097 4.07783C7.83269 4.0513 8.01852 4.04492 9.5 4.04492C10.9815 4.04492 11.1673 4.0513 11.749 4.07797C12.3297 4.10435 12.7262 4.19655 13.0732 4.33121C13.4372 4.4682 13.767 4.68303 14.0395 4.96062C14.317 5.23315 14.5318 5.56278 14.6686 5.92677C14.8036 6.2738 14.8958 6.67027 14.9223 7.25097C14.9488 7.83269 14.9551 8.01852 14.9551 9.5C14.9551 10.9815 14.9488 11.1673 14.9222 11.749Z" fill="white"/>
</g>
<defs>
<clipPath id="clip0_803_2726">
<rect width="19" height="19" fill="white"/>
</clipPath>
</defs>
</svg>
