<svg width="40" height="30" viewBox="0 0 40 30" fill="none" xmlns="http://www.w3.org/2000/svg">
<path d="M23.3429 19.7438C22.3477 20.3936 21.1918 20.7371 20 20.7371C18.8083 20.7371 17.6523 20.3936 16.6572 19.7438L0.266328 9.04098C0.175391 8.9816 0.0867969 8.9197 0 8.85603V26.3937C0 28.4045 1.66602 30.0002 3.68227 30.0002H36.3177C38.3706 30.0002 39.9999 28.3685 39.9999 26.3937V8.85596C39.913 8.91977 39.8242 8.98183 39.733 9.04128L23.3429 19.7438Z" fill="#F7A600"/>
<path d="M1.56641 6.4728L17.9573 17.1757C18.5777 17.5808 19.2888 17.7834 19.9999 17.7834C20.7111 17.7834 21.4223 17.5808 22.0427 17.1757L38.4336 6.4728C39.4145 5.83273 40 4.76148 40 3.6053C40 1.61728 38.3487 0 36.319 0H3.68102C1.65133 7.65179e-05 0 1.61736 0 3.60721C0 4.76148 0.585625 5.83273 1.56641 6.4728Z" fill="#F7A600"/>
</svg>
