<svg width="51" height="51" viewBox="0 0 51 51" fill="none" xmlns="http://www.w3.org/2000/svg">
<g clip-path="url(#clip0_803_2776)">
<path d="M30.0234 25.204C30.0234 27.8684 27.8636 30.0282 25.1992 30.0282C22.5348 30.0282 20.375 27.8684 20.375 25.204C20.375 22.5396 22.5348 20.3798 25.1992 20.3798C27.8636 20.3798 30.0234 22.5396 30.0234 25.204Z" fill="white"/>
<path d="M25.2041 -0.000183105C11.2864 -0.000183105 0 11.2862 0 25.2039C0 39.1216 11.2864 50.408 25.2041 50.408C39.1218 50.408 50.4082 39.1216 50.4082 25.2039C50.4082 11.2862 39.1218 -0.000183105 25.2041 -0.000183105ZM39.5894 31.1707C39.5194 32.7114 39.2745 33.7632 38.9168 34.6839C38.1649 36.628 36.6281 38.1648 34.6841 38.9166C33.7638 39.2743 32.7115 39.5189 31.1713 39.5893C29.6279 39.6596 29.1349 39.6766 25.2045 39.6766C21.2736 39.6766 20.781 39.6596 19.2373 39.5893C17.697 39.5189 16.6448 39.2743 15.7245 38.9166C14.7584 38.5532 13.8839 37.9836 13.1608 37.2471C12.4247 36.5245 11.8552 35.6496 11.4917 34.6839C11.1341 33.7636 10.8891 32.7114 10.8191 31.1711C10.748 29.6274 10.7314 29.1343 10.7314 25.2039C10.7314 21.2735 10.748 20.7804 10.8187 19.2371C10.8887 17.6964 11.1333 16.6446 11.491 15.7239C11.8544 14.7582 12.4244 13.8833 13.1608 13.1607C13.8835 12.4242 14.7584 11.8546 15.7241 11.4912C16.6448 11.1335 17.6966 10.8889 19.2373 10.8185C20.7806 10.7482 21.2736 10.7312 25.2041 10.7312C29.1345 10.7312 29.6276 10.7482 31.1709 10.8189C32.7115 10.8889 33.7634 11.1335 34.6841 11.4908C35.6498 11.8542 36.5247 12.4242 37.2477 13.1607C37.9838 13.8837 38.5538 14.7582 38.9168 15.7239C39.2748 16.6446 39.5194 17.6964 39.5898 19.2371C39.6602 20.7804 39.6767 21.2735 39.6767 25.2039C39.6767 29.1343 39.6602 29.6274 39.5894 31.1707Z" fill="white"/>
<path d="M28.9599 15.8972H31.8402V10.8351C30.4457 10.6844 29.0444 10.6101 27.6423 10.6123C23.4751 10.6123 20.6254 13.2547 20.6254 18.0939V22.2645H15.9219V27.9314H20.6254V42.4489H26.2634V27.9314H30.9516L31.6564 22.2645H26.2634V18.651C26.2634 16.9796 26.6924 15.8972 28.9599 15.8972Z" fill="black"/>
</g>
<defs>
<clipPath id="clip0_803_2776">
<rect width="50.4082" height="50.4082" fill="white"/>
</clipPath>
</defs>
</svg>
