<svg width="27" height="27" viewBox="0 0 27 27" fill="none" xmlns="http://www.w3.org/2000/svg">
<g clip-path="url(#clip0_803_337)">
<path d="M16.084 13.5C16.084 14.9271 14.9271 16.084 13.5 16.084C12.0729 16.084 10.916 14.9271 10.916 13.5C10.916 12.0729 12.0729 10.916 13.5 10.916C14.9271 10.916 16.084 12.0729 16.084 13.5Z" fill="white"/>
<path d="M13.5 0C6.0453 0 0 6.0453 0 13.5C0 20.9547 6.0453 27 13.5 27C20.9547 27 27 20.9547 27 13.5C27 6.0453 20.9547 0 13.5 0ZM21.2052 16.696C21.1677 17.5212 21.0365 18.0846 20.8449 18.5777C20.4422 19.619 19.619 20.4422 18.5777 20.8449C18.0848 21.0365 17.5212 21.1675 16.6962 21.2052C15.8695 21.2429 15.6055 21.252 13.5002 21.252C11.3947 21.252 11.1309 21.2429 10.304 21.2052C9.479 21.1675 8.91541 21.0365 8.42246 20.8449C7.90501 20.6502 7.43658 20.3452 7.04931 19.9507C6.65504 19.5636 6.34996 19.095 6.1553 18.5777C5.96372 18.0848 5.8325 17.5212 5.79501 16.6962C5.7569 15.8693 5.74805 15.6053 5.74805 13.5C5.74805 11.3947 5.7569 11.1307 5.79481 10.304C5.8323 9.4788 5.96331 8.91541 6.15488 8.42226C6.34955 7.90501 6.65483 7.43637 7.04931 7.04931C7.43637 6.65483 7.90501 6.34975 8.42226 6.15509C8.91541 5.96352 9.4788 5.8325 10.304 5.79481C11.1307 5.75711 11.3947 5.74805 13.5 5.74805C15.6053 5.74805 15.8693 5.75711 16.696 5.79501C17.5212 5.8325 18.0846 5.96352 18.5777 6.15488C19.095 6.34955 19.5636 6.65483 19.9509 7.04931C20.3452 7.43658 20.6505 7.90501 20.8449 8.42226C21.0367 8.91541 21.1677 9.4788 21.2054 10.304C21.2431 11.1307 21.252 11.3947 21.252 13.5C21.252 15.6053 21.2431 15.8693 21.2052 16.696Z" fill="white"/>
<path d="M15.5089 8.51484H17.0517V5.80348C16.3047 5.72277 15.5542 5.68293 14.8032 5.68411C12.5711 5.68411 11.0447 7.09947 11.0447 9.69147V11.9254H8.52539V14.9607H11.0447V22.7367H14.0646V14.9607H16.5757L16.9532 11.9254H14.0646V9.98989C14.0646 9.09463 14.2944 8.51484 15.5089 8.51484Z" fill="black"/>
</g>
<defs>
<clipPath id="clip0_803_337">
<rect width="27" height="27" fill="white"/>
</clipPath>
</defs>
</svg>
