<svg width="102" height="102" viewBox="0 0 102 102" fill="none" xmlns="http://www.w3.org/2000/svg">
<path d="M50.9093 101.34C55.7444 101.34 59.797 97.916 60.7668 93.3647H41.0518C42.0215 97.916 46.0742 101.34 50.9093 101.34Z" fill="#F7A600"/>
<path d="M35.403 81.0235V87.4513H66.4165V81.2127C66.4165 79.5944 66.6372 78.0038 67.061 76.4821H34.7979C35.196 77.9427 35.403 79.4683 35.403 81.0235Z" fill="#F7A600"/>
<path d="M74.1848 20.3961C68.1079 14.2423 60.0046 10.7889 51.3652 10.6726C42.6273 10.5523 34.3624 13.8776 28.0726 20.0314C21.7867 26.1793 18.2841 34.3673 18.2111 43.0875C18.1303 52.7184 22.2696 61.8525 29.5667 68.1463C30.4182 68.8795 31.185 69.6916 31.8611 70.5688H70.0041C70.6999 69.6581 71.4903 68.8145 72.3655 68.0536C79.5147 61.8328 83.6146 52.8367 83.6146 43.3714C83.6146 34.7142 80.2657 26.5558 74.1848 20.3961ZM72.4364 42.8273C72.0678 43.4167 63.2747 57.252 50.9119 57.252C38.5491 57.252 29.7559 43.4167 29.3873 42.8273L28.4077 41.2603L29.3873 39.6933C29.7559 39.1039 38.5491 25.2687 50.9119 25.2687C63.2747 25.2687 72.0678 39.1039 72.4364 39.6933L73.4161 41.2603L72.4364 42.8273Z" fill="#F7A600"/>
<path d="M50.9091 31.1816C43.89 31.1816 37.8958 38.0786 35.5049 41.2599C37.8958 44.4393 43.89 51.3382 50.9091 51.3382C57.9283 51.3382 63.9224 44.4393 66.3134 41.2599C63.9244 38.0825 57.9302 31.1816 50.9091 31.1816ZM53.8658 44.2166H47.9525V38.3033H53.8658V44.2166Z" fill="#F7A600"/>
<path d="M13.3154 4.85406L17.4962 0.673334L23.6279 6.80507L19.4472 10.9858L13.3154 4.85406Z" fill="#F7A600"/>
<path d="M0.563477 30.2436L2.32565 24.5964L10.6083 27.1809L8.84609 32.8281L0.563477 30.2436Z" fill="#F7A600"/>
<path d="M13.3076 81.5245L19.4394 75.3927L23.6201 79.5735L17.4883 85.7052L13.3076 81.5245Z" fill="#F7A600"/>
<path d="M0.553711 56.1843L8.83633 53.5997L10.5985 59.247L2.31589 61.8315L0.553711 56.1843Z" fill="#F7A600"/>
<path d="M78.1807 6.81201L84.3124 0.680274L88.4931 4.861L82.3614 10.9927L78.1807 6.81201Z" fill="#F7A600"/>
<path d="M91.2646 27.2007L99.5473 24.6162L101.309 30.2634L93.0268 32.8479L91.2646 27.2007Z" fill="#F7A600"/>
<path d="M78.1709 79.5796L82.3516 75.3989L88.4834 81.5306L84.3026 85.7113L78.1709 79.5796Z" fill="#F7A600"/>
<path d="M91.2471 59.1787L93.0092 53.5315L101.292 56.116L99.5297 61.7632L91.2471 59.1787Z" fill="#F7A600"/>
</svg>
