<svg width="40" height="41" viewBox="0 0 40 41" fill="none" xmlns="http://www.w3.org/2000/svg">
<path d="M38.9511 29.4177L33.3572 23.8239C31.3594 21.8261 27.9631 22.6253 27.164 25.2223C26.5647 27.0204 24.5669 28.0193 22.7688 27.6197C18.7732 26.6208 13.3791 21.4265 12.3802 17.2311C11.7809 15.433 12.9796 13.4352 14.7776 12.8359C17.3748 12.0368 18.1739 8.64052 16.1761 6.64271L10.5822 1.04885C8.98396 -0.349616 6.58659 -0.349616 5.18812 1.04885L1.39229 4.84469C-2.40355 8.8403 1.79185 19.4287 11.1815 28.8184C20.5713 38.2081 31.1596 42.6033 35.1553 38.6077L38.9511 34.8118C40.3496 33.2136 40.3496 30.8162 38.9511 29.4177Z" fill="#F7A600"/>
</svg>
