<svg width="28" height="27" viewBox="0 0 28 27" fill="none" xmlns="http://www.w3.org/2000/svg">
<g clip-path="url(#clip0_803_353)">
<rect x="0.421875" width="27" height="27" rx="13.5" fill="black"/>
<path d="M13.9219 0C6.46717 0 0.421875 6.0453 0.421875 13.5C0.421875 20.9547 6.46717 27 13.9219 27C21.3766 27 27.4219 20.9547 27.4219 13.5C27.4219 6.0453 21.3766 0 13.9219 0ZM9.99893 20.4082H6.71107V10.5166H9.99893V20.4082ZM8.3551 9.16589H8.33368C7.23038 9.16589 6.51682 8.40639 6.51682 7.45718C6.51682 6.48653 7.25221 5.74805 8.37694 5.74805C9.50166 5.74805 10.1938 6.48653 10.2152 7.45718C10.2152 8.40639 9.50166 9.16589 8.3551 9.16589ZM21.8543 20.4082H18.5668V15.1164C18.5668 13.7865 18.0908 12.8795 16.9012 12.8795C15.9929 12.8795 15.452 13.4913 15.2143 14.0819C15.1273 14.2933 15.1061 14.5887 15.1061 14.8843V20.4082H11.8185C11.8185 20.4082 11.8615 11.4446 11.8185 10.5166H15.1061V11.9171C15.543 11.2431 16.3248 10.2844 18.0691 10.2844C20.2323 10.2844 21.8543 11.6982 21.8543 14.7364V20.4082Z" fill="white"/>
</g>
<defs>
<clipPath id="clip0_803_353">
<rect x="0.421875" width="27" height="27" rx="13.5" fill="white"/>
</clipPath>
</defs>
</svg>
