<svg width="101" height="101" viewBox="0 0 101 101" fill="none" xmlns="http://www.w3.org/2000/svg">
<g clip-path="url(#clip0_803_244)">
<path d="M62.2185 53.2975C62.2185 61.4336 55.5993 68.0529 47.4632 68.0529C39.3271 68.0529 32.7078 61.4336 32.7078 53.2975C32.7078 45.1612 39.3271 38.5418 47.4632 38.5418C50.4669 38.5418 53.2623 39.4462 55.5959 40.9938L64.153 32.4367C63.9599 32.2955 63.7659 32.155 63.5685 32.0169C57.7654 27.9618 51.9523 25.9123 46.266 25.9123C45.7452 25.9123 45.2257 25.9294 44.707 25.9638C37.846 26.4307 31.454 29.4851 26.7131 34.5639C21.9603 39.6472 19.3438 46.2994 19.3438 53.2975C19.3438 60.8058 22.2694 67.8667 27.5815 73.1788C32.894 78.4913 39.9547 81.4168 47.463 81.4168C54.9713 81.4168 62.0321 78.4911 67.3444 73.1788C72.6566 67.8665 75.582 60.8058 75.582 53.2975C75.582 47.1171 73.0862 41.1837 68.5802 36.3507L59.7661 45.1646C61.3143 47.4982 62.2185 50.2938 62.2185 53.2975Z" fill="#F7A600"/>
<path d="M45.3769 51.2119L51.2816 45.3072C50.1245 44.7518 48.8292 44.4401 47.4624 44.4401C42.5787 44.4401 38.6055 48.4135 38.6055 53.2974C38.6055 58.1811 42.5787 62.1543 47.4624 62.1543C52.3461 62.1543 56.3193 58.1811 56.3193 53.2974C56.3193 51.9305 56.0076 50.6351 55.4524 49.478L49.5479 55.3825L45.3769 51.2119Z" fill="#F7A600"/>
<path d="M76.4224 28.5077L72.7528 32.1773C78.3647 38.1192 81.4795 45.5245 81.4795 53.2977C81.4795 62.3816 77.9404 70.9234 71.5141 77.3497C65.0875 83.7763 56.5456 87.3155 47.4618 87.3155C38.378 87.3155 29.8361 83.7763 23.4096 77.3497C16.983 70.9234 13.444 62.3814 13.444 53.2977C13.444 44.7984 16.6254 36.7154 22.4017 30.5373C28.1651 24.3629 35.9465 20.6478 44.3103 20.0786C51.8703 19.579 59.4832 21.9673 66.9457 27.1823C67.4302 27.5209 67.9013 27.8697 68.3639 28.2248L72.2518 24.3369L72.8745 13.2889C65.3492 8.4884 56.6036 5.91589 47.462 5.91589C34.806 5.91589 22.9072 10.8444 13.9581 19.7935C5.00862 28.7427 0.0800781 40.6414 0.0800781 53.2975C0.0800781 65.9535 5.00862 77.8523 13.9579 86.8014C22.9072 95.7505 34.8058 100.679 47.4618 100.679C60.1179 100.679 72.0166 95.7507 80.9658 86.8014C89.9149 77.8521 94.8434 65.9535 94.8434 53.2975C94.8434 44.1559 92.2707 35.4102 87.4704 27.885L76.4224 28.5077Z" fill="#F7A600"/>
<path d="M78.2637 22.4959L90.3158 21.8166L100.747 11.3848L89.375 0.0122681L78.9432 10.4439L78.2637 22.4959Z" fill="#F7A600"/>
</g>
<defs>
<clipPath id="clip0_803_244">
<rect width="100.667" height="100.667" fill="white" transform="translate(0.0800781 0.0123596)"/>
</clipPath>
</defs>
</svg>
