<svg width="52" height="51" viewBox="0 0 52 51" fill="none" xmlns="http://www.w3.org/2000/svg">
<g clip-path="url(#clip0_803_1167)">
<path d="M26.001 -3.05176e-05C12.0816 -3.05176e-05 0.796875 11.2847 0.796875 25.2041C0.796875 39.1234 12.0816 50.4081 26.001 50.4081C39.9203 50.4081 51.205 39.1234 51.205 25.2041C51.205 11.2847 39.9203 -3.05176e-05 26.001 -3.05176e-05Z" fill="white"/>
<path d="M28.7566 22.9238L39.5462 10.3818H36.9894L27.6208 21.2719L20.1382 10.3818H11.5078L22.823 26.8495L11.5078 40.0017H14.0647L23.9582 28.5014L31.8604 40.0017H40.4908L28.7559 22.9238H28.7566ZM14.986 12.3066H18.9133L36.9906 38.1644H33.0633L14.986 12.3066Z" fill="black"/>
</g>
<defs>
<clipPath id="clip0_803_1167">
<rect width="50.4082" height="50.4082" fill="white" transform="translate(0.796875 4.57764e-05)"/>
</clipPath>
</defs>
</svg>
