<svg width="28" height="27" viewBox="0 0 28 27" fill="none" xmlns="http://www.w3.org/2000/svg">
<g clip-path="url(#clip0_803_349)">
<path d="M14.4473 0C6.99168 0 0.947266 6.04441 0.947266 13.5C0.947266 20.9556 6.99168 27 14.4473 27C21.9029 27 27.9473 20.9556 27.9473 13.5C27.9473 6.04441 21.9029 0 14.4473 0Z" fill="white"/>
<path d="M15.9264 12.2784L21.7056 5.56055H20.3361L15.3181 11.3936L11.3102 5.56055H6.6875L12.7482 14.3811L6.6875 21.4258H8.05706L13.3563 15.2659L17.5889 21.4258H22.2116L15.9261 12.2784H15.9264ZM8.55052 6.59154H10.6541L20.3368 20.4417H18.2332L8.55052 6.59154Z" fill="black"/>
</g>
<defs>
<clipPath id="clip0_803_349">
<rect width="27" height="27" fill="white" transform="translate(0.947266)"/>
</clipPath>
</defs>
</svg>
