<svg width="21" height="14" viewBox="0 0 21 14" fill="none" xmlns="http://www.w3.org/2000/svg">
<path d="M17.9264 0.115725C17.8578 0.0596673 17.7685 0.029688 17.6767 0.0318566C17.5849 0.0340252 17.4974 0.0681798 17.432 0.127405C17.3665 0.186631 17.328 0.266502 17.3242 0.350849C17.3204 0.435195 17.3517 0.517715 17.4116 0.5817C19.247 2.29368 20.2759 4.60082 20.2759 7.00449C20.2759 9.40816 19.247 11.7153 17.4116 13.4273C17.3772 13.4582 17.3499 13.4951 17.3312 13.5357C17.3125 13.5764 17.3029 13.6201 17.3027 13.6643C17.3026 13.7085 17.3121 13.7522 17.3305 13.793C17.349 13.8338 17.3761 13.8708 17.4102 13.9018C17.4444 13.9329 17.485 13.9574 17.5295 13.9739C17.5741 13.9904 17.6218 13.9986 17.6698 13.998C17.7179 13.9974 17.7653 13.988 17.8094 13.9703C17.8534 13.9527 17.8932 13.9272 17.9264 13.8953C19.8959 12.0587 21 9.5834 21 7.00449C21 4.42559 19.8959 1.95028 17.9264 0.113728V0.115725ZM0.724107 7.00549C0.715766 4.60002 1.7459 2.28976 3.58844 0.5817C3.62552 0.551429 3.65544 0.514479 3.67634 0.473142C3.69725 0.431804 3.70869 0.38696 3.70996 0.341389C3.71124 0.295819 3.70231 0.250494 3.68375 0.208224C3.66518 0.165954 3.63737 0.12764 3.60203 0.0956587C3.56669 0.0636772 3.52459 0.0387093 3.47832 0.0223031C3.43205 0.00589694 3.38262 -0.00159778 3.33307 0.000283608C3.28352 0.002165 3.23492 0.0133824 3.19029 0.0332403C3.14565 0.0530982 3.10593 0.0811734 3.07358 0.115725C1.10409 1.95228 0 4.42758 0 7.00649C0 9.5854 1.10409 12.0607 3.07358 13.8973C3.1068 13.9292 3.14659 13.9547 3.19064 13.9723C3.2347 13.99 3.28213 13.9994 3.33017 14C3.37822 14.0006 3.42591 13.9924 3.47048 13.9759C3.51505 13.9594 3.5556 13.9349 3.58976 13.9038C3.62393 13.8728 3.65103 13.8358 3.66949 13.795C3.68794 13.7542 3.69739 13.7105 3.69726 13.6663C3.69714 13.6221 3.68746 13.5784 3.66877 13.5377C3.65009 13.497 3.62278 13.4602 3.58844 13.4293C1.7459 11.7212 0.715766 9.41097 0.724107 7.00549Z" fill="#272761"/>
</svg>
