<svg width="20" height="25" viewBox="0 0 20 25" fill="none" xmlns="http://www.w3.org/2000/svg">
<path d="M10 0C15.5283 0 20 4.42775 20 9.92641C20 12.4142 19.0703 14.6699 17.5545 16.4163L17.1572 16.9243L12.0979 22.6275L11.6952 23.1397L10.029 25L8.38897 23.1424L7.99035 22.6275L3.08 17.1028C3.06676 17.089 3.05295 17.0757 3.03862 17.063C3.01379 17.0396 2.98207 17.004 2.93655 16.9586C2.00566 16.0372 1.26699 14.9417 0.763022 13.7351C0.259056 12.5284 -0.000257631 11.2345 1.92068e-07 9.92778C1.92068e-07 4.42776 4.47172 0 10 0ZM10.0028 5.09364C8.71404 5.09617 7.47884 5.60688 6.56757 6.51394C5.65631 7.421 5.14324 8.6505 5.14069 9.93327C5.14324 11.2163 5.65622 12.4461 6.56741 13.3536C7.47859 14.2611 8.71379 14.7724 10.0028 14.7757C11.292 14.7724 12.5275 14.2612 13.4391 13.3538C14.3507 12.4463 14.8643 11.2166 14.8676 9.93327C14.8647 8.65001 14.3511 7.42016 13.4394 6.51288C12.5277 5.60561 11.292 5.0948 10.0028 5.09226V5.09364ZM10.0028 6.46658C10.4607 6.46513 10.9143 6.55379 11.3377 6.72746C11.7611 6.90113 12.1457 7.15639 12.4697 7.47856C12.7936 7.80072 13.0503 8.18344 13.2251 8.60471C13.3999 9.02598 13.4894 9.47749 13.4883 9.93327C13.4895 10.3892 13.4003 10.841 13.2256 11.2625C13.0508 11.684 12.7941 12.0669 12.4702 12.3894C12.1463 12.7118 11.7616 12.9673 11.3381 13.1412C10.9147 13.3151 10.4608 13.404 10.0028 13.4027C9.54486 13.4038 9.09126 13.3148 8.66803 13.1408C8.24481 12.9668 7.86032 12.7112 7.53666 12.3888C7.213 12.0664 6.95657 11.6835 6.78209 11.262C6.60761 10.8406 6.51854 10.3891 6.52 9.93327C6.51836 9.4775 6.60732 9.0259 6.78174 8.60449C6.95617 8.18308 7.21262 7.80018 7.53634 7.47783C7.86005 7.15548 8.24463 6.90006 8.66792 6.72627C9.09122 6.55248 9.54487 6.46376 10.0028 6.46521V6.46658Z" fill="#DC6A6A"/>
</svg>
