<svg width="17" height="12" viewBox="0 0 17 12" fill="none" xmlns="http://www.w3.org/2000/svg">
<path d="M16.2917 6C16.2951 7.00398 16.0952 7.99879 15.7031 8.92762C15.3111 9.85645 14.7347 10.7011 14.0069 11.4133C13.9409 11.4783 13.904 11.5661 13.9045 11.6574C13.905 11.7488 13.9428 11.8362 14.0096 11.9004C14.0764 11.9647 14.1667 12.0005 14.2606 12C14.3546 11.9995 14.4445 11.9628 14.5106 11.8978C16.1056 10.3266 17 8.2077 17 6C17 3.7923 16.1056 1.67345 14.5106 0.102171C14.4445 0.0372395 14.3546 0.000489168 14.2606 4.84799e-06C14.1667 -0.000479472 14.0764 0.0353418 14.0096 0.0995885C13.9428 0.163835 13.905 0.251244 13.9045 0.342587C13.904 0.43393 13.9409 0.521724 14.0069 0.586655C14.7347 1.29889 15.3111 2.14355 15.7031 3.07238C16.0952 4.00121 16.2951 4.99602 16.2917 6ZM2.48943 11.8978C2.55551 11.9628 2.64541 11.9995 2.73936 12C2.83331 12.0005 2.92361 11.9647 2.9904 11.9004C3.05718 11.8362 3.09498 11.7488 3.09548 11.6574C3.09598 11.5661 3.05914 11.4783 2.99306 11.4133C1.52909 9.9711 0.708262 8.02632 0.708262 6C0.708262 3.97368 1.52909 2.0289 2.99306 0.586655C3.05914 0.521724 3.09598 0.43393 3.09548 0.342587C3.09498 0.251244 3.05718 0.163835 2.9904 0.0995885C2.92361 0.0353418 2.83331 -0.00047947 2.73936 4.84799e-06C2.64541 0.000489166 2.55551 0.0372395 2.48943 0.102171C0.894355 1.67345 0 3.7923 0 6C0 8.2077 0.894355 10.3266 2.48943 11.8978Z" fill="#272761"/>
</svg>
