<svg width="13" height="10" viewBox="0 0 13 10" fill="none" xmlns="http://www.w3.org/2000/svg">
<path d="M10.6149 9.89164C10.6794 9.95893 10.7667 9.99638 10.8574 9.99577C10.9481 9.99516 11.0349 9.95654 11.0986 9.88839C12.317 8.5827 13 6.82337 13 4.99047C13 3.15757 12.317 1.39825 11.0986 0.0925498C11.0338 0.0310841 10.9493 -0.00198253 10.8622 9.20275e-05C10.7751 0.00216658 10.6921 0.039226 10.63 0.103714C10.5679 0.168202 10.5315 0.255264 10.5281 0.347146C10.5247 0.439029 10.5546 0.528815 10.6118 0.598197C11.7037 1.76875 12.3158 3.34575 12.3158 4.98867C12.3158 6.63158 11.7037 8.20858 10.6118 9.37914C10.58 9.41292 10.5548 9.45301 10.5377 9.49711C10.5207 9.5412 10.512 9.58843 10.5123 9.63607C10.5126 9.6837 10.5218 9.73081 10.5394 9.77467C10.557 9.81854 10.5826 9.85829 10.6149 9.89164ZM1.9014 9.88839C1.93277 9.92304 1.97035 9.95074 2.01196 9.96989C2.05356 9.98905 2.09837 9.99927 2.14375 9.99996C2.18914 10.0007 2.2342 9.99181 2.27632 9.97393C2.31843 9.95605 2.35676 9.9295 2.38906 9.89583C2.42136 9.86216 2.44699 9.82205 2.46446 9.77781C2.48192 9.73358 2.49088 9.68612 2.4908 9.6382C2.49072 9.59028 2.48161 9.54285 2.464 9.49869C2.44639 9.45452 2.42063 9.41449 2.38822 9.38094C1.29628 8.21039 0.684225 6.63339 0.684225 4.99047C0.684225 3.34756 1.29628 1.77056 2.38822 0.600003C2.44538 0.530621 2.47531 0.440835 2.47193 0.348952C2.46855 0.257069 2.4321 0.170008 2.37001 0.10552C2.30792 0.041032 2.22488 0.00397251 2.1378 0.00189795C2.05072 -0.000176602 1.96618 0.03289 1.9014 0.0943557C0.682981 1.40005 0 3.15938 0 4.99228C0 6.82517 0.682981 8.5845 1.9014 9.8902V9.88839Z" fill="#272761"/>
</svg>
