<svg width="14" height="20" viewBox="0 0 14 20" fill="none" xmlns="http://www.w3.org/2000/svg">
<path d="M6.59011 0.520508C10.2333 0.520508 13.1802 3.92348 13.1802 8.14949C13.1802 10.0615 12.5676 11.7951 11.5686 13.1373L11.3068 13.5278L7.97266 17.911L7.70724 18.3046L6.60919 19.7344L5.52842 18.3067L5.26572 17.911L2.02975 13.6649C2.02102 13.6543 2.01193 13.6441 2.00248 13.6343C1.98612 13.6164 1.96521 13.589 1.93522 13.5541C1.32175 12.846 0.834959 12.004 0.50284 11.0766C0.17072 10.1493 -0.000169782 9.15485 1.26575e-07 8.15054C1.26575e-07 3.92348 2.94691 0.520508 6.59011 0.520508ZM6.59192 4.43524C5.74265 4.43719 4.92863 4.8297 4.3281 5.52682C3.72757 6.22394 3.38945 7.16888 3.38777 8.15476C3.38945 9.14084 3.72751 10.086 4.32799 10.7835C4.92847 11.4809 5.74248 11.8739 6.59192 11.8764C7.44154 11.8739 8.25573 11.481 8.8565 10.7836C9.45727 10.0862 9.79574 9.14103 9.7979 8.15476C9.79597 7.16851 9.45756 6.2233 8.85671 5.52601C8.25587 4.82872 7.44153 4.43614 6.59192 4.43418V4.43524ZM6.59192 5.49042C6.89369 5.48931 7.19266 5.55745 7.47166 5.69093C7.75066 5.8244 8.00418 6.02058 8.21764 6.26818C8.4311 6.51578 8.6003 6.80992 8.7155 7.13369C8.8307 7.45746 8.88964 7.80447 8.88892 8.15476C8.88976 8.5052 8.83092 8.85237 8.71578 9.17632C8.60064 9.50027 8.43148 9.79461 8.21801 10.0424C8.00455 10.2902 7.751 10.4866 7.47194 10.6202C7.19287 10.7539 6.89381 10.8222 6.59192 10.8212C6.29016 10.822 5.99123 10.7536 5.71233 10.6199C5.43342 10.4862 5.18003 10.2898 4.96674 10.042C4.75345 9.79417 4.58445 9.49987 4.46947 9.176C4.35449 8.85212 4.29579 8.50506 4.29675 8.15476C4.29567 7.80448 4.35429 7.4574 4.46924 7.13352C4.58419 6.80965 4.75319 6.51536 4.96652 6.26762C5.17985 6.01988 5.4333 5.82358 5.71225 5.69001C5.99121 5.55644 6.29017 5.48825 6.59192 5.48937V5.49042Z" fill="#DC6A6A"/>
</svg>
