<svg width="35" height="35" viewBox="0 0 35 35" fill="none" xmlns="http://www.w3.org/2000/svg">
<path d="M17.5 0C7.85088 0 0 7.85088 0 17.5C0 27.1491 7.85088 35 17.5 35C27.1491 35 35 27.1491 35 17.5C35 7.85088 27.1491 0 17.5 0ZM27.2807 12.8947L16.0965 23.9912C15.4386 24.6491 14.386 24.693 13.6842 24.0351L7.76316 18.6404C7.0614 17.9825 7.01754 16.886 7.63158 16.1842C8.28947 15.4825 9.38597 15.4386 10.0877 16.0965L14.7807 20.3947L24.7807 10.3947C25.4825 9.69298 26.5789 9.69298 27.2807 10.3947C27.9825 11.0965 27.9825 12.193 27.2807 12.8947Z" fill="#F7A600"/>
</svg>
