<svg width="12" height="14" viewBox="0 0 12 14" fill="none" xmlns="http://www.w3.org/2000/svg">
<path d="M4.47333 3.30001L5.33333 2.39027V10.5009C5.33333 10.6865 5.40357 10.8645 5.5286 10.9958C5.65362 11.127 5.82319 11.2007 6 11.2007C6.17681 11.2007 6.34638 11.127 6.4714 10.9958C6.59643 10.8645 6.66667 10.6865 6.66667 10.5009V2.39027L7.52667 3.30001C7.58864 3.3656 7.66238 3.41766 7.74362 3.45319C7.82486 3.48872 7.91199 3.50701 8 3.50701C8.08801 3.50701 8.17515 3.48872 8.25638 3.45319C8.33762 3.41766 8.41136 3.3656 8.47333 3.30001C8.53582 3.23496 8.58541 3.15756 8.61926 3.07228C8.65311 2.987 8.67053 2.89554 8.67053 2.80315C8.67053 2.71077 8.65311 2.61931 8.61926 2.53403C8.58541 2.44875 8.53582 2.37135 8.47333 2.3063L6.47333 0.206907C6.41136 0.141316 6.33762 0.0892555 6.25638 0.0537277C6.17515 0.0181999 6.08801 -9.15527e-05 6 -9.15527e-05C5.91199 -9.15527e-05 5.82486 0.0181999 5.74362 0.0537277C5.66238 0.0892555 5.58864 0.141316 5.52667 0.206907L3.52667 2.3063C3.40113 2.43807 3.33061 2.6168 3.33061 2.80315C3.33061 2.98951 3.40113 3.16824 3.52667 3.30001C3.6522 3.43178 3.82247 3.50582 4 3.50582C4.17753 3.50582 4.3478 3.43178 4.47333 3.30001ZM10 4.90255H8.66667C8.48986 4.90255 8.32029 4.97627 8.19526 5.10751C8.07024 5.23875 8 5.41675 8 5.60234C8 5.78794 8.07024 5.96594 8.19526 6.09717C8.32029 6.22841 8.48986 6.30214 8.66667 6.30214H10C10.1768 6.30214 10.3464 6.37587 10.4714 6.50711C10.5964 6.63834 10.6667 6.81634 10.6667 7.00194V11.9005C10.6667 12.0861 10.5964 12.2641 10.4714 12.3953C10.3464 12.5266 10.1768 12.6003 10 12.6003H2C1.82319 12.6003 1.65362 12.5266 1.5286 12.3953C1.40357 12.2641 1.33333 12.0861 1.33333 11.9005V7.00194C1.33333 6.81634 1.40357 6.63834 1.5286 6.50711C1.65362 6.37587 1.82319 6.30214 2 6.30214H3.33333C3.51014 6.30214 3.67971 6.22841 3.80474 6.09717C3.92976 5.96594 4 5.78794 4 5.60234C4 5.41675 3.92976 5.23875 3.80474 5.10751C3.67971 4.97627 3.51014 4.90255 3.33333 4.90255H2C1.46957 4.90255 0.960859 5.12373 0.585787 5.51744C0.210714 5.91116 0 6.44514 0 7.00194V11.9005C0 12.4573 0.210714 12.9913 0.585787 13.385C0.960859 13.7787 1.46957 13.9999 2 13.9999H10C10.5304 13.9999 11.0391 13.7787 11.4142 13.385C11.7893 12.9913 12 12.4573 12 11.9005V7.00194C12 6.44514 11.7893 5.91116 11.4142 5.51744C11.0391 5.12373 10.5304 4.90255 10 4.90255Z" fill="black"/>
</svg>
