<svg width="25" height="23" viewBox="0 0 25 23" fill="none" xmlns="http://www.w3.org/2000/svg">
<path d="M22.2741 0H19.9377V2.3C19.9377 2.76 19.5483 3.06667 19.1589 3.06667C18.7695 3.06667 18.3801 2.76 18.3801 2.3V0H5.919V2.3C5.919 2.76 5.52959 3.06667 5.14019 3.06667C4.75078 3.06667 4.36137 2.76 4.36137 2.3V0H2.02492C0.856698 0 0 0.996667 0 2.3V5.06H24.9221V2.3C24.9221 0.996667 23.5203 0 22.2741 0ZM0 6.67V20.7C0 22.08 0.856698 23 2.1028 23H22.352C23.5981 23 25 22.0033 25 20.7V6.67H0ZM6.93146 19.55H5.06231C4.75078 19.55 4.43925 19.32 4.43925 18.9367V17.02C4.43925 16.7133 4.6729 16.4067 5.06231 16.4067H7.00935C7.32087 16.4067 7.6324 16.6367 7.6324 17.02V18.9367C7.55452 19.32 7.32087 19.55 6.93146 19.55ZM6.93146 12.65H5.06231C4.75078 12.65 4.43925 12.42 4.43925 12.0367V10.12C4.43925 9.81333 4.6729 9.50667 5.06231 9.50667H7.00935C7.32087 9.50667 7.6324 9.73667 7.6324 10.12V12.0367C7.55452 12.42 7.32087 12.65 6.93146 12.65ZM13.162 19.55H11.215C10.9034 19.55 10.5919 19.32 10.5919 18.9367V17.02C10.5919 16.7133 10.8255 16.4067 11.215 16.4067H13.162C13.4735 16.4067 13.785 16.6367 13.785 17.02V18.9367C13.785 19.32 13.5514 19.55 13.162 19.55ZM13.162 12.65H11.215C10.9034 12.65 10.5919 12.42 10.5919 12.0367V10.12C10.5919 9.81333 10.8255 9.50667 11.215 9.50667H13.162C13.4735 9.50667 13.785 9.73667 13.785 10.12V12.0367C13.785 12.42 13.5514 12.65 13.162 12.65ZM19.3925 19.55H17.4455C17.134 19.55 16.8224 19.32 16.8224 18.9367V17.02C16.8224 16.7133 17.0561 16.4067 17.4455 16.4067H19.3925C19.7041 16.4067 20.0156 16.6367 20.0156 17.02V18.9367C20.0156 19.32 19.7819 19.55 19.3925 19.55ZM19.3925 12.65H17.4455C17.134 12.65 16.8224 12.42 16.8224 12.0367V10.12C16.8224 9.81333 17.0561 9.50667 17.4455 9.50667H19.3925C19.7041 9.50667 20.0156 9.73667 20.0156 10.12V12.0367C20.0156 12.42 19.7819 12.65 19.3925 12.65Z" fill="#272761"/>
</svg>
