<svg width="30" height="30" viewBox="0 0 30 30" fill="none" xmlns="http://www.w3.org/2000/svg">
<path d="M15 0C12.0333 0 9.13319 0.879734 6.66645 2.52796C4.19972 4.17618 2.27713 6.51886 1.14181 9.25975C0.00649932 12.0006 -0.290551 15.0166 0.288227 17.9264C0.867006 20.8361 2.29562 23.5088 4.3934 25.6066C6.49119 27.7044 9.16393 29.133 12.0736 29.7118C14.9834 30.2906 17.9994 29.9935 20.7403 28.8582C23.4811 27.7229 25.8238 25.8003 27.472 23.3335C29.1203 20.8668 30 17.9667 30 15C29.9953 11.0232 28.4134 7.21061 25.6014 4.39858C22.7894 1.58655 18.9768 0.00469155 15 0ZM20.055 20.055C19.7993 20.3106 19.4525 20.4543 19.0909 20.4543C18.7293 20.4543 18.3825 20.3106 18.1268 20.055L14.0359 15.9641C13.7802 15.7084 13.6364 15.3616 13.6364 15V6.81818C13.6364 6.45652 13.78 6.10968 14.0358 5.85394C14.2915 5.59821 14.6383 5.45454 15 5.45454C15.3617 5.45454 15.7085 5.59821 15.9642 5.85394C16.22 6.10968 16.3636 6.45652 16.3636 6.81818V14.4355L20.055 18.1268C20.3106 18.3825 20.4543 18.7293 20.4543 19.0909C20.4543 19.4525 20.3106 19.7993 20.055 20.055Z" fill="#F7A600"/>
</svg>
