<svg width="14" height="14" viewBox="0 0 14 14" fill="none" xmlns="http://www.w3.org/2000/svg">
<path d="M7.00607 14.0095C6.8074 14.0107 6.61288 13.9527 6.44732 13.8428C6.28176 13.733 6.15265 13.5764 6.07646 13.3929C6.00028 13.2094 5.98046 13.0074 6.01954 12.8126C6.05862 12.6178 6.15483 12.439 6.29589 12.2991L11.5973 7.00775L6.29589 1.71639C6.13202 1.52504 6.0464 1.2789 6.05612 1.02716C6.06584 0.775416 6.1702 0.536615 6.34834 0.358475C6.52648 0.180334 6.76528 0.0759756 7.01702 0.066252C7.26876 0.0565283 7.5149 0.142156 7.70625 0.306025L13.7078 6.30757C13.8941 6.49498 13.9987 6.7485 13.9987 7.01275C13.9987 7.277 13.8941 7.53052 13.7078 7.71793L7.70625 13.7195C7.51995 13.9043 7.26848 14.0084 7.00607 14.0095Z" fill="black"/>
<path d="M1.00607 14.0092C0.807399 14.0104 0.61288 13.9524 0.447317 13.8425C0.281755 13.7327 0.152651 13.576 0.0764645 13.3926C0.000278187 13.2091 -0.0195384 13.007 0.0195413 12.8122C0.058621 12.6174 0.154826 12.4387 0.295892 12.2988L5.59726 7.00743L0.295892 1.71607C0.10754 1.52772 0.00172447 1.27226 0.00172447 1.00589C0.00172447 0.739521 0.10754 0.484061 0.295892 0.295709C0.484244 0.107356 0.739704 0.00154114 1.00607 0.00154114C1.27244 0.00154114 1.5279 0.107356 1.71626 0.295709L7.7178 6.29725C7.9041 6.48466 8.00867 6.73818 8.00867 7.00243C8.00867 7.26669 7.9041 7.5202 7.7178 7.70761L1.71626 13.7092C1.62362 13.8037 1.51315 13.8789 1.39124 13.9304C1.26933 13.9819 1.13842 14.0087 1.00607 14.0092Z" fill="black"/>
</svg>
